<svg width="25" height="25" viewBox="0 0 25 25" fill="none" xmlns="http://www.w3.org/2000/svg">
<g clip-path="url(#clip0_559:2212)">
<path d="M24.3917 13.7339C24.3917 12.7097 24.3087 11.9622 24.129 11.1871H12.4453V15.81H19.3034C19.1652 16.9589 18.4185 18.689 16.7593 19.8516L16.736 20.0064L20.4302 22.8712L20.6861 22.8968C23.0367 20.7237 24.3917 17.5264 24.3917 13.7339Z" fill="#4285F4"/>
<path d="M12.4455 25.9141C15.8054 25.9141 18.626 24.8068 20.6863 22.8967L16.7594 19.8516C15.7086 20.5852 14.2982 21.0973 12.4455 21.0973C9.15469 21.0973 6.36168 18.9243 5.36604 15.9208L5.22011 15.9332L1.37885 18.909L1.32861 19.0488C3.37497 23.1181 7.57836 25.9141 12.4455 25.9141Z" fill="#34A853"/>
<path d="M5.36624 15.9208C5.10354 15.1457 4.9515 14.3152 4.9515 13.457C4.9515 12.5988 5.10354 11.7684 5.35242 10.9933L5.34546 10.8282L1.45607 7.80457L1.32881 7.86516C0.485411 9.5538 0.00146484 11.4501 0.00146484 13.457C0.00146484 15.464 0.485411 17.3602 1.32881 19.0488L5.36624 15.9208Z" fill="#FBBC05"/>
<path d="M12.4455 5.8167C14.7822 5.8167 16.3584 6.8271 17.2572 7.67147L20.7692 4.23884C18.6123 2.23187 15.8053 1 12.4455 1C7.57835 1 3.37497 3.7959 1.32861 7.86517L5.35222 10.9933C6.36167 7.98979 9.15468 5.8167 12.4455 5.8167Z" fill="#EB4335"/>
</g>
<defs>
<clipPath id="clip0_559:2212">
<rect width="24.4048" height="25" fill="white"/>
</clipPath>
</defs>
</svg>
