<svg width="28" height="22" viewBox="0 0 28 22" fill="none" xmlns="http://www.w3.org/2000/svg">
<path d="M23.115 17.9582C23.115 18.2818 22.8948 18.515 22.5789 18.515C22.2534 18.515 22.0428 18.2675 22.0428 17.9582C22.0428 17.6488 22.2534 17.4013 22.5789 17.4013C22.8948 17.4013 23.115 17.6488 23.115 17.9582ZM8.23792 17.4013C7.89806 17.4013 7.70181 17.6488 7.70181 17.9582C7.70181 18.2675 7.89806 18.515 8.23792 18.515C8.54905 18.515 8.75967 18.2818 8.75967 17.9582C8.75488 17.6488 8.54905 17.4013 8.23792 17.4013ZM13.8623 17.387C13.6038 17.387 13.4459 17.5536 13.4076 17.8011H14.3218C14.2787 17.5298 14.1112 17.387 13.8623 17.387ZM19.0224 17.4013C18.6969 17.4013 18.5006 17.6488 18.5006 17.9582C18.5006 18.2675 18.6969 18.515 19.0224 18.515C19.3479 18.515 19.5585 18.2818 19.5585 17.9582C19.5585 17.6488 19.3479 17.4013 19.0224 17.4013ZM24.0915 18.6436C24.0915 18.6578 24.1058 18.6674 24.1058 18.6959C24.1058 18.7102 24.0915 18.7197 24.0915 18.7483C24.0771 18.7625 24.0771 18.7721 24.0675 18.7863C24.0532 18.8006 24.0436 18.8101 24.0149 18.8101C24.0005 18.8244 23.991 18.8244 23.9622 18.8244C23.9479 18.8244 23.9383 18.8244 23.9096 18.8101C23.8952 18.8101 23.8857 18.7959 23.8713 18.7863C23.8569 18.7721 23.8474 18.7625 23.8474 18.7483C23.833 18.7245 23.833 18.7102 23.833 18.6959C23.833 18.6721 23.833 18.6578 23.8474 18.6436C23.8474 18.6198 23.8617 18.6055 23.8713 18.5912C23.8857 18.5769 23.8952 18.5769 23.9096 18.5674C23.9335 18.5531 23.9479 18.5531 23.9622 18.5531C23.9862 18.5531 24.0005 18.5531 24.0149 18.5674C24.0388 18.5817 24.0532 18.5817 24.0675 18.5912C24.0819 18.6007 24.0771 18.6198 24.0915 18.6436ZM23.9862 18.7102C24.0101 18.7102 24.0101 18.6959 24.0245 18.6959C24.0388 18.6816 24.0388 18.6721 24.0388 18.6578C24.0388 18.6436 24.0388 18.634 24.0245 18.6198C24.0101 18.6198 24.0005 18.6055 23.9718 18.6055H23.8952V18.7721H23.9335V18.7054H23.9479L24.0005 18.7721H24.0388L23.9862 18.7102V18.7102ZM27.5714 2.28463V19.0386C27.5714 20.2999 26.5423 21.3232 25.2738 21.3232H2.29762C1.02914 21.3232 0 20.2999 0 19.0386V2.28463C0 1.02333 1.02914 0 2.29762 0H25.2738C26.5423 0 27.5714 1.02333 27.5714 2.28463ZM3.06349 8.92911C3.06349 12.5702 6.03603 15.5212 9.69307 15.5212C10.9951 15.5212 12.2731 15.1309 13.3549 14.4217C9.8654 11.5993 9.88933 6.27322 13.3549 3.45075C12.2731 2.7368 10.9951 2.35127 9.69307 2.35127C6.03603 2.34651 3.06349 5.30225 3.06349 8.92911ZM13.7857 14.1076C17.1603 11.4898 17.146 6.38745 13.7857 3.75537C10.4254 6.38745 10.4111 11.4946 13.7857 14.1076ZM6.97423 17.7392C6.97423 17.3251 6.70138 17.0538 6.27058 17.0396C6.05039 17.0396 5.81584 17.1062 5.65788 17.3489C5.543 17.1538 5.34675 17.0396 5.07391 17.0396C4.89201 17.0396 4.71012 17.1062 4.56652 17.2966V17.0872H4.17401V18.8339H4.56652C4.56652 17.9344 4.44685 17.3965 4.99732 17.3965C5.48556 17.3965 5.38983 17.882 5.38983 18.8339H5.76798C5.76798 17.9629 5.64831 17.3965 6.19878 17.3965C6.68702 17.3965 6.59129 17.8725 6.59129 18.8339H6.9838V17.7392H6.97423ZM9.12346 17.0872H8.74531V17.2966C8.61607 17.1395 8.43417 17.0396 8.18526 17.0396C7.69223 17.0396 7.31408 17.4298 7.31408 17.9582C7.31408 18.4912 7.69223 18.8768 8.18526 18.8768C8.43417 18.8768 8.61607 18.7863 8.74531 18.6198V18.8387H9.12346V17.0872ZM11.0621 18.3056C11.0621 17.5917 9.96592 17.9153 9.96592 17.5822C9.96592 17.3109 10.5355 17.3537 10.8515 17.5298L11.0094 17.2204C10.5595 16.9301 9.56383 16.9348 9.56383 17.6107C9.56383 18.2913 10.66 18.0058 10.66 18.3247C10.66 18.6245 10.0138 18.6007 9.66914 18.3627L9.50161 18.6626C10.0377 19.0243 11.0621 18.9482 11.0621 18.3056V18.3056ZM12.7566 18.7483L12.6513 18.4246C12.4694 18.5246 12.0673 18.634 12.0673 18.2295V17.4394H12.6943V17.0872H12.0673V16.5541H11.6748V17.0872H11.311V17.4346H11.6748V18.2295C11.6748 19.0672 12.5029 18.9149 12.7566 18.7483V18.7483ZM13.3932 18.1105H14.7095C14.7095 17.3394 14.3553 17.0348 13.8767 17.0348C13.3693 17.0348 13.0055 17.4108 13.0055 17.9534C13.0055 18.9291 14.0873 19.091 14.6234 18.6293L14.4415 18.3437C14.0681 18.6483 13.5033 18.6198 13.3932 18.1105V18.1105ZM16.2221 17.0872C16.0019 16.992 15.6669 17.0015 15.4946 17.2966V17.0872H15.102V18.8339H15.4946V17.8487C15.4946 17.2966 15.9493 17.368 16.1073 17.4489L16.2221 17.0872V17.0872ZM16.7295 17.9582C16.7295 17.4156 17.2848 17.2395 17.7204 17.5584L17.9023 17.249C17.347 16.8159 16.337 17.0538 16.337 17.9629C16.337 18.9053 17.4092 19.0957 17.9023 18.6769L17.7204 18.3675C17.28 18.6769 16.7295 18.4912 16.7295 17.9582ZM19.9223 17.0872H19.5297V17.2966C19.1325 16.773 18.0985 17.0681 18.0985 17.9582C18.0985 18.872 19.1707 19.1338 19.5297 18.6198V18.8387H19.9223V17.0872V17.0872ZM21.5354 17.0872C21.4205 17.03 21.0088 16.9491 20.8078 17.2966V17.0872H20.4296V18.8339H20.8078V17.8487C20.8078 17.3251 21.2386 17.3585 21.4205 17.4489L21.5354 17.0872V17.0872ZM23.4644 16.378H23.0863V17.2966C22.6938 16.7778 21.655 17.0538 21.655 17.9582C21.655 18.8815 22.7321 19.129 23.0863 18.6198V18.8387H23.4644V16.378ZM23.8282 12.8035V13.0224H23.8665V12.8035H23.9575V12.7654H23.7373V12.8035H23.8282V12.8035ZM24.1441 18.6959C24.1441 18.6721 24.1441 18.6436 24.1298 18.6198C24.1154 18.6055 24.1058 18.5817 24.0915 18.5674C24.0771 18.5531 24.0532 18.5436 24.0388 18.5293C24.0149 18.5293 23.9862 18.515 23.9622 18.515C23.9479 18.515 23.9239 18.5293 23.8952 18.5293C23.8713 18.5436 23.8569 18.5531 23.8426 18.5674C23.8186 18.5817 23.8043 18.6055 23.8043 18.6198C23.7899 18.6436 23.7899 18.6721 23.7899 18.6959C23.7899 18.7102 23.7899 18.734 23.8043 18.7625C23.8043 18.7768 23.8186 18.8006 23.8426 18.8149C23.8569 18.8292 23.8665 18.8387 23.8952 18.853C23.9192 18.8673 23.9479 18.8673 23.9622 18.8673C23.9862 18.8673 24.0149 18.8673 24.0388 18.853C24.0532 18.8387 24.0771 18.8292 24.0915 18.8149C24.1058 18.8006 24.1154 18.7768 24.1298 18.7625C24.1441 18.734 24.1441 18.7102 24.1441 18.6959ZM24.2973 12.7606H24.2303L24.1537 12.9272L24.0771 12.7606H24.0101V13.0176H24.0484V12.8225L24.125 12.9891H24.1776L24.2447 12.8225V13.0176H24.2973V12.7606V12.7606ZM24.5079 8.92911C24.5079 5.30225 21.5354 2.34651 17.8783 2.34651C16.5764 2.34651 15.2983 2.7368 14.2165 3.44599C17.6677 6.26846 17.7204 11.6088 14.2165 14.417C15.2983 15.1309 16.5859 15.5165 17.8783 15.5165C21.5354 15.5212 24.5079 12.5702 24.5079 8.92911V8.92911Z" fill="#FF5B00"/>
</svg>
