<svg width="28" height="22" viewBox="0 0 28 22" fill="none" xmlns="http://www.w3.org/2000/svg">
<path d="M9.32339 10.7663C9.32339 11.347 8.85908 11.7897 8.27032 11.7897C7.82994 11.7897 7.50444 11.5422 7.50444 11.0757C7.50444 10.495 7.95918 10.0286 8.54316 10.0286C8.98832 10.0286 9.32339 10.2999 9.32339 10.7663ZM4.25906 8.4579H4.03408C3.96228 8.4579 3.89048 8.5055 3.88091 8.58641L3.67508 9.85724L4.06759 9.84296C4.59413 9.84296 5.001 9.77157 5.09673 9.16709C5.20683 8.5293 4.79996 8.4579 4.25906 8.4579V8.4579ZM17.8533 8.4579H17.6379C17.5517 8.4579 17.4943 8.5055 17.4847 8.58641L17.2837 9.85724L17.6666 9.84296C18.2889 9.84296 18.7197 9.70017 18.7197 8.98622C18.7149 8.4817 18.2602 8.4579 17.8533 8.4579V8.4579ZM27.9772 2.28463V19.0386C27.9772 20.2999 26.948 21.3232 25.6796 21.3232H2.70338C1.4349 21.3232 0.405762 20.2999 0.405762 19.0386V2.28463C0.405762 1.02333 1.4349 0 2.70338 0H25.6796C26.948 0 27.9772 1.02333 27.9772 2.28463ZM6.5471 8.7292C6.5471 7.72967 5.77166 7.3965 4.88612 7.3965H2.97143C2.85177 7.3965 2.7321 7.49169 2.72253 7.6202L1.93751 12.4798C1.92315 12.575 1.99495 12.6702 2.09068 12.6702H3.00015C3.1294 12.6702 3.24906 12.5322 3.26342 12.3989L3.47883 11.1328C3.52669 10.7901 4.11067 10.9091 4.34043 10.9091C5.70943 10.9091 6.5471 10.1 6.5471 8.7292V8.7292ZM10.5775 9.14805H9.66803C9.48614 9.14805 9.47656 9.40983 9.46699 9.53834C9.18936 9.13377 8.78728 9.06238 8.33254 9.06238C7.1598 9.06238 6.26469 10.0857 6.26469 11.2137C6.26469 12.1419 6.84866 12.7463 7.78207 12.7463C8.21288 12.7463 8.74899 12.5131 9.05055 12.1799C9.02661 12.2513 9.00268 12.4037 9.00268 12.475C9.00268 12.5845 9.05055 12.6654 9.15586 12.6654H9.97917C10.1084 12.6654 10.2185 12.5274 10.2424 12.3941L10.7307 9.33368C10.745 9.24324 10.6732 9.14805 10.5775 9.14805ZM12.5161 13.8078L15.5653 9.40031C15.5892 9.37651 15.5892 9.35272 15.5892 9.3194C15.5892 9.23849 15.5174 9.15281 15.436 9.15281H14.517C14.4356 9.15281 14.3494 9.20041 14.3016 9.2718L13.0331 11.1281L12.5065 9.3432C12.4683 9.23849 12.3629 9.15281 12.2433 9.15281H11.3482C11.2668 9.15281 11.195 9.23849 11.195 9.3194C11.195 9.37651 12.1284 12.0229 12.2098 12.2751C12.0805 12.456 11.2285 13.6364 11.2285 13.7792C11.2285 13.8649 11.3003 13.9315 11.3817 13.9315H12.3007C12.3869 13.9267 12.4683 13.8791 12.5161 13.8078V13.8078ZM20.1413 8.7292C20.1413 7.72967 19.3659 7.3965 18.4804 7.3965H16.58C16.4508 7.3965 16.3311 7.49169 16.3168 7.6202L15.5413 12.475C15.5317 12.5702 15.6035 12.6654 15.6945 12.6654H16.6758C16.7715 12.6654 16.8433 12.594 16.8672 12.5131L17.0826 11.1328C17.1305 10.7901 17.7145 10.9091 17.9442 10.9091C19.3037 10.9091 20.1413 10.1 20.1413 8.7292ZM24.1717 9.14805H23.2623C23.0804 9.14805 23.0708 9.40983 23.0564 9.53834C22.7932 9.13377 22.3863 9.06238 21.922 9.06238C20.7493 9.06238 19.8541 10.0857 19.8541 11.2137C19.8541 12.1419 20.4381 12.7463 21.3715 12.7463C21.8167 12.7463 22.3528 12.5131 22.64 12.1799C22.6256 12.2513 22.5921 12.4037 22.5921 12.475C22.5921 12.5845 22.64 12.6654 22.7453 12.6654H23.5734C23.7026 12.6654 23.8127 12.5274 23.8367 12.3941L24.3249 9.33368C24.3393 9.24324 24.2675 9.14805 24.1717 9.14805V9.14805ZM26.4454 7.56309C26.4454 7.46789 26.3736 7.3965 26.2923 7.3965H25.4067C25.3349 7.3965 25.2631 7.45362 25.2535 7.52501L24.4781 12.475L24.4637 12.4988C24.4637 12.5845 24.5355 12.6654 24.6313 12.6654H25.4211C25.5407 12.6654 25.6604 12.5274 25.67 12.3941L26.4454 7.57737V7.56309V7.56309ZM22.1374 10.0286C21.5534 10.0286 21.0987 10.4903 21.0987 11.0757C21.0987 11.5374 21.4337 11.7897 21.8741 11.7897C22.4485 11.7897 22.9128 11.3518 22.9128 10.7663C22.9176 10.2999 22.5826 10.0286 22.1374 10.0286Z" fill="#FF5B00"/>
</svg>
