<svg width="29" height="22" viewBox="0 0 29 22" fill="none" xmlns="http://www.w3.org/2000/svg">
<path d="M0.703125 19.0386C0.703125 20.2999 1.73227 21.3232 3.00074 21.3232H25.9769C27.2454 21.3232 28.2745 20.2999 28.2745 19.0386V10.6616H0.703125V19.0386ZM9.8936 15.802C9.8936 15.4879 10.1521 15.2309 10.468 15.2309H16.9779C17.2938 15.2309 17.5523 15.4879 17.5523 15.802V17.7059C17.5523 18.02 17.2938 18.2771 16.9779 18.2771H10.468C10.1521 18.2771 9.8936 18.02 9.8936 17.7059V15.802ZM3.76662 15.802C3.76662 15.4879 4.0251 15.2309 4.34102 15.2309H7.78745C8.10337 15.2309 8.36185 15.4879 8.36185 15.802V17.7059C8.36185 18.02 8.10337 18.2771 7.78745 18.2771H4.34102C4.0251 18.2771 3.76662 18.02 3.76662 17.7059V15.802ZM28.2745 2.28463V4.56927H0.703125V2.28463C0.703125 1.02333 1.73227 0 3.00074 0H25.9769C27.2454 0 28.2745 1.02333 28.2745 2.28463Z" fill="#FF5B00"/>
</svg>
