<svg width="28" height="22" viewBox="0 0 28 22" fill="none" xmlns="http://www.w3.org/2000/svg">
<path d="M22.6108 9.48599C22.6108 9.48599 22.9746 11.2566 23.056 11.6278H21.4572C21.6152 11.2042 22.2231 9.55738 22.2231 9.55738C22.2135 9.57166 22.381 9.12425 22.4768 8.84819L22.6108 9.48599ZM27.6799 2.28463V19.0386C27.6799 20.2999 26.6508 21.3232 25.3823 21.3232H2.40603C1.13754 21.3232 0.108398 20.2999 0.108398 19.0386V2.28463C0.108398 1.02333 1.13754 0 2.40603 0H25.3823C26.6508 0 27.6799 1.02333 27.6799 2.28463ZM7.40815 14.2409L10.4334 6.8539H8.399L6.51782 11.8991L6.31199 10.8758L5.64185 7.47741C5.53176 7.00621 5.1919 6.87294 4.77067 6.8539H1.67366L1.64015 7.00145C2.39645 7.19183 3.07138 7.46789 3.66015 7.81535L5.3738 14.2409H7.40815ZM11.9268 14.2504L13.1331 6.8539H11.2088L10.0073 14.2504H11.9268ZM18.6234 11.8325C18.633 10.99 18.1161 10.3475 17.0103 9.81916C16.3354 9.48123 15.9237 9.25276 15.9237 8.90531C15.9333 8.59117 16.2732 8.26752 17.0295 8.26752C17.6565 8.25324 18.1161 8.40079 18.4607 8.54834L18.633 8.62925L18.8963 7.03001C18.5181 6.88246 17.915 6.71587 17.1731 6.71587C15.2727 6.71587 13.9372 7.72492 13.9277 9.16233C13.9133 10.2237 14.885 10.8139 15.6126 11.1709C16.3545 11.5326 16.6082 11.7706 16.6082 12.0895C16.5987 12.5845 16.0051 12.813 15.4546 12.813C14.6888 12.813 14.2771 12.694 13.65 12.4179L13.3963 12.2989L13.1283 13.9601C13.5782 14.1647 14.4111 14.3456 15.2727 14.3551C17.2927 14.3599 18.6091 13.3651 18.6234 11.8325ZM25.3823 14.2504L23.8314 6.8539H22.3427C21.8832 6.8539 21.5338 6.98717 21.3375 7.46789L18.4798 14.2504H20.4998C20.4998 14.2504 20.8301 13.3365 20.9019 13.1414H23.3719C23.4293 13.4032 23.6016 14.2504 23.6016 14.2504H25.3823Z" fill="#FF5B00"/>
</svg>
